# AST/ASF file generated using VICON BodyLanguage
# -----------------------------------------------
:version 1.10
:name VICON
:units
  mass 1.0
  length 0.45
  angle deg
:documentation
   .ast/.asf automatically generated from VICON data using
   VICON BodyBuilder and BodyLanguage model FoxedUp or BRILLIANT.MOD
:root
   order TX TY TZ RX RY RZ
   axis XYZ
   position 0 0 0  
   orientation 0 0 0 
:bonedata
  begin
     id 1 
     name lhipjoint
     direction 0.611804 -0.747784 0.257906 
     length 2.29243 
     axis 0 0 0  XYZ
  end
  begin
     id 2 
     name lfemur
     direction 0.34202 -0.939693 0  
     length 7.31159  
     axis 0 0 20  XYZ
    dof rx ry rz
    limits (-160.0 20.0)
           (-70.0 70.0)
           (-60.0 70.0)
  end
  begin
     id 3 
     name ltibia
     direction 0.34202 -0.939693 0   
     length 7.33391   
     axis 0 0 20   XYZ
    dof rx
    limits (-10.0 170.0)
  end
  begin
     id 4 
     name lfoot
     direction 0.122263 -0.335914 0.933924   
     length 1.76083   
     axis -90 7.62852e-016 20   XYZ
    dof rx rz
    limits (-45.0 90.0)
           (-70.0 20.0)
  end
  begin
     id 5 
     name ltoes
     direction 1.53533e-011 -4.2177e-011 1   
     length 0.879206   
     axis -90 7.62852e-016 20   XYZ
    dof rx
    limits (-90.0 20.0)
  end
  begin
     id 6 
     name rhipjoint
     direction -0.646469 -0.721248 0.248754   
     length 2.37677  
     axis 0 0 0  XYZ 
  end
  begin
     id 7 
     name rfemur
     direction -0.34202 -0.939693 0   
     length 7.18623   
     axis 0 0 -20   XYZ
    dof rx ry rz
    limits (-160.0 20.0)
           (-70.0 70.0)
           (-70.0 60.0)
  end
  begin
     id 8 
     name rtibia
     direction -0.34202 -0.939693 0   
     length 7.36567   
     axis 0 0 -20   XYZ
    dof rx
    limits (-10.0 170.0)
 end
 begin
     id 9 
     name rfoot
     direction -0.126681 -0.348054 0.928876   
     length 1.71902  
     axis -90 -7.62852e-016 -20   XYZ
    dof rx rz
    limits (-45.0 90.0)
           (-20.0 70.0)
  end
  begin
     id 10 
     name rtoes
     direction -1.53551e-011 -4.21898e-011 1   
     length 0.857792   
     axis -90 -7.62852e-016 -20   XYZ
    dof rx
    limits (-90.0 20.0)
  end
  begin
     id 11 
     name lowerback
     direction 0.0106509 0.999778 0.0181844   
     length 2.07668   
     axis 0 0 0   XYZ
    dof rx ry rz
    limits (-20.0 45.0)
           (-30.0 30.0)
           (-30.0 30.0)
  end
  begin
     id 12 
     name upperback
     direction -0.00456018 0.999989 -0.000590935   
     length 2.08011   
     axis 0 0 0   XYZ
    dof rx ry rz
    limits (-20.0 45.0)
           (-30.0 30.0)
           (-30.0 30.0)
  end
  begin
     id 13 
     name thorax
     direction -0.00910382 0.999916 -0.00923765   
     length 2.07397   
     axis 0 0 0   XYZ
    dof rx ry rz
    limits (-20.0 45.0)
           (-30.0 30.0)
           (-30.0 30.0)
  end
  begin
     id 14 
     name lowerneck
     direction 0.00171967 0.99778 0.0665733   
     length 1.67556   
     axis 0 0 0   XYZ
    dof rx ry rz
    limits (-20.0 45.0)
           (-30.0 30.0)
           (-30.0 30.0)
  end
  begin
     id 15 
     name upperneck
     direction -0.0143166 0.991302 -0.130828   
     length 1.68462   
     axis 0 0 0   XYZ
    dof rx ry rz
    limits (-20.0 45.0)
           (-30.0 30.0)
           (-30.0 30.0)
  end
  begin
     id 16
     name head
     direction -0.00606378 0.998665 -0.0512995  
     length 1.69269  
     axis 0 0 0   XYZ
    dof rx ry rz
    limits (-20.0 45.0)
           (-30.0 30.0)
           (-30.0 30.0)
  end
  begin
     id 17 
     name lclavicle
     direction 0.9638 0.179341 0.197297  
     length 4.12888  
     axis 0 0 0   XYZ
    dof ry rz
    limits (-20.0 10.0)
           (0.0 20.0)
  end
  begin
     id 18 
     name lhumerus
     direction 1 -4.48972e-011 -2.47351e-027   
     length 5.01834   
     axis -180 -30 -90   XYZ
    dof rx ry rz
    limits (-60.0 90.0)
           (-90.0 90.0)
           (-90.0 90.0)
  end
  begin
     id 19
     name lradius
     direction 1 -4.48965e-011 1.51591e-026   
     length 3.4869   
     axis -180 -30 -90   XYZ
    dof rx
    limits (-10.0 170.0)
  end
  begin
     id 20
     name lwrist
     direction 1 -4.48957e-011 2.70032e-026   
     length 1.74345   
     axis -1.81515e-014 90 90   XYZ
    dof ry
    limits (-180.0 0.0)
 end
  begin
     id 21 
     name lhand
     direction 1 -4.48951e-011 5.40064e-026   
     length 0.76799   
     axis -3.44607e-014 90 90   XYZ
    dof rx rz
    limits (-90.0 90.0)
           (-45.0 45.0)
  end
  begin
     id 22 
     name lfingers
     direction 1 -4.48971e-011 1.08013e-025   
     length 0.619174   
     axis -6.89214e-014 90 90   XYZ
    dof rx
    limits (0.0 90.0)
  end
  begin
     id 23
     name lthumb
     direction 0.707107 -6.34931e-011 0.707107   
     length 0.889013   
     axis -90 45 2.85299e-015   XYZ
    dof rx rz
    limits (-45.0 45.0)
           (-45.0 45.0)
  end
  begin
     id 24 
     name rclavicle
     direction -0.961409 0.252588 0.109054   
     length 4.04305  
     axis 0 0 0   XYZ 
    dof ry rz
    limits (-10.0 20.0)
           (-20.0 0.0)
  end
  begin
     id 25 
     name rhumerus
     direction -1 -4.4897e-011 1.33872e-017  
     length 4.70164   
     axis -180 30 90   XYZ
    dof rx ry rz
    limits (-90.0 60.0)
           (-90.0 90.0)
           (-90.0 90.0)
  end
  begin
     id 26 
     name rradius
     direction -1 -4.48954e-011 1.83844e-026   
     length 3.49911   
     axis -180 30 90   XYZ
    dof rx
    limits (-10.0 170.0)
  end
  begin
     id 27 
     name rwrist
     direction -1 -4.49008e-011 2.70032e-026   
     length 1.74955   
     axis -1.81515e-014 -90 -90   XYZ
    dof ry
    limits (-180.0 0.0)
  end
  begin
     id 28
     name rhand
     direction -1 -4.48916e-011 5.40064e-026   
     length 0.739335   
     axis -3.44607e-014 -90 -90   XYZ
    dof rx rz
    limits (-90.0 90.0)
           (-45.0 45.0)
  end
  begin
     id 29
     name rfingers
     direction -1 -4.48987e-011 1.08013e-025   
     length 0.596071   
     axis -6.89214e-014 -90 -90   XYZ
    dof rx
    limits (0.0 90.0)
  end
  begin
     id 30
     name rthumb
     direction -0.707107 -6.34935e-011 0.707107   
     length 0.855843   
     axis -90 -45 -2.85299e-015   XYZ
    dof rx rz
    limits (-45.0 45.0)
           (-45.0 45.0)
  end
:hierarchy
  begin
    root lhipjoint rhipjoint lowerback
    lhipjoint lfemur
    lfemur ltibia
    ltibia lfoot
    lfoot ltoes
    rhipjoint rfemur
    rfemur rtibia
    rtibia rfoot
    rfoot rtoes
    lowerback upperback
    upperback thorax
    thorax lowerneck lclavicle rclavicle
    lowerneck upperneck
    upperneck head
    lclavicle lhumerus
    lhumerus lradius
    lradius lwrist
    lwrist lhand lthumb
    lhand lfingers
    rclavicle rhumerus
    rhumerus rradius
    rradius rwrist
    rwrist rhand rthumb
    rhand rfingers
  end

#!OML:ASF I:\salsa\salsa 7_09\Patient 1\Session 1\dancermale.ASF
:FULLY-SPECIFIED
:DEGREES
265
root 1.12101 17.3595 1.64905 224.061 83.7152 211.98
lowerback -4.90601 3.45155 3.27504
upperback 3.33937 4.28247 2.68398
thorax 6.26638 2.21651 1.41316
lowerneck -9.81256 3.60889 3.11094
upperneck 22.3396 6.11667 -4.94756
head 8.83569 2.83001 -1.52059
rclavicle 8.34896e-015 7.15625e-015
rhumerus -71.8542 -3.9884 -109.096
rradius 30.6152
rwrist -2.56171
rhand -3.68504 8.21958
rfingers 7.12502
rthumb 22.0564 -20.5426
lclavicle 8.34896e-015 7.15625e-015
lhumerus -88.1609 -8.19939 139.558
lradius 74.096
lwrist 62.0954
lhand -9.47758 73.7753
lfingers 7.12502
lthumb 16.4867 -103.095
rfemur -10.6557 -1.33621 26.3176
rtibia 25.0217
rfoot -15.3883 -2.67406
rtoes -4.08602
lfemur -32.7439 -8.04902 -10.9212
ltibia 60.8241
lfoot -13.741 -0.935711
ltoes 2.97677
266
root 1.098 17.3481 1.56556 233.784 84.03 221.578
lowerback -5.06655 3.27614 3.78183
upperback 3.07204 4.00168 2.89454
thorax 6.09642 2.09337 1.31997
lowerneck -9.92052 3.47716 2.88561
upperneck 22.7572 5.94579 -4.68564
head 8.97629 2.75402 -1.41009
rclavicle -3.71727e-014 -9.54166e-015
rhumerus -72.0322 -5.04215 -105.25
rradius 28.2601
rwrist -0.00195746
rhand -4.23116 8.02749
rfingers 7.12502
rthumb 21.532 -20.7956
lclavicle -3.71727e-014 -9.54166e-015
lhumerus -88.194 -9.16782 139.762
lradius 74.1701
lwrist 57.786
lhand -10.1576 73.6623
lfingers 7.12502
lthumb 15.8319 -103.035
rfemur -10.8248 -0.943417 26.6071
rtibia 24.8609
rfoot -15.3899 -2.35095
rtoes -5.43175
lfemur -31.4715 -7.71753 -10.3135
ltibia 61.6491
lfoot -12.9839 -1.27287
ltoes 8.19985
267
root 1.07928 17.3388 1.47501 243.252 84.1558 230.958
lowerback -5.17582 3.07089 4.31463
upperback 2.71315 3.68826 3.06892
thorax 5.8016 1.9527 1.16294
lowerneck -9.70099 3.28649 2.71683
upperneck 23.0629 5.69198 -4.45594
head 9.01737 2.65034 -1.33502
rclavicle 3.73715e-014 -1.19271e-014
rhumerus -72.3642 -6.27144 -100.7
rradius 25.727
rwrist 3.4963
rhand -4.42358 7.64346
rfingers 7.12502
rthumb 21.3472 -21.2007
lclavicle 3.73715e-014 -1.19271e-014
lhumerus -88.3892 -10.0097 139.688
lradius 74.1213
lwrist 53.9804
lhand -10.6839 73.7926
lfingers 7.12502
lthumb 15.325 -103.205
rfemur -10.976 -0.537593 26.8314
rtibia 24.7842
rfoot -15.4993 -2.06232
rtoes -5.51287
lfemur -30.0974 -7.41096 -9.90459
ltibia 62.1774
lfoot -12.1682 -1.69225
ltoes 13.0013
268
root 1.05447 17.3421 1.38236 251.911 83.8769 239.268
lowerback -5.48745 2.80817 4.99432
upperback 2.31578 3.27627 3.32983
thorax 5.58031 1.76628 1.01529
lowerneck -9.6053 3.049 2.46738
upperneck 23.402 5.38572 -4.23544
head 9.09064 2.511 -1.25257
rclavicle 3.53837e-014 2.54444e-014
rhumerus -72.6817 -7.50144 -95.3708
rradius 23.2137
rwrist 7.78872
rhand -4.4967 7.1711
rfingers 7.12502
rthumb 21.2769 -21.681
lclavicle 3.53837e-014 2.54444e-014
lhumerus -88.4042 -10.8905 139.308
lradius 73.7419
lwrist 50.8165
lhand -10.8501 74.0318
lfingers 7.12502
lthumb 15.1648 -103.456
rfemur -11.5512 -0.0882913 27.2881
rtibia 24.9016
rfoot -15.5017 -2.04187
rtoes -5.63379
lfemur -29.1303 -7.03579 -9.31776
ltibia 62.5742
lfoot -11.76 -2.26932
ltoes 15.4784
269
root 1.05018 17.3371 1.28023 258.405 84.2151 245.67
lowerback -5.69176 2.57012 5.13185
upperback 2.0431 2.9443 3.28962
thorax 5.41148 1.60145 0.860444
lowerneck -9.70474 2.71928 2.33669
upperneck 23.8327 4.9559 -4.13356
head 9.23619 2.30774 -1.24079
rclavicle -1.98785e-016 3.18055e-015
rhumerus -73.0969 -9.03306 -89.2918
rradius 20.7955
rwrist 12.8879
rhand -4.41587 6.65296
rfingers 7.12502
rthumb 21.3546 -22.1904
lclavicle -1.98785e-016 3.18055e-015
lhumerus -88.4027 -11.9538 138.6
lradius 73.0489
lwrist 48.6143
lhand -11.2317 74.3931
lfingers 7.12502
lthumb 14.7973 -103.845
rfemur -11.6865 0.167628 26.7893
rtibia 24.9025
rfoot -15.3787 -1.87373
rtoes -6.27899
lfemur -27.5035 -6.712 -9.85832
ltibia 62.2773
lfoot -11.3171 -2.76826
ltoes 16.7348
270
root 1.03389 17.341 1.17658 265.025 84.3178 252.098
lowerback -5.87524 2.28582 5.38585
upperback 1.76215 2.5441 3.30748
thorax 5.22105 1.40595 0.692695
lowerneck -9.90214 2.43775 2.29635
upperneck 24.2536 4.60651 -4.18193
head 9.40787 2.13187 -1.28666
rclavicle 3.06128e-014 3.73715e-014
rhumerus -73.5534 -10.4726 -82.6401
rradius 18.591
rwrist 18.7171
rhand -4.27675 5.9655
rfingers 7.12502
rthumb 21.4882 -22.8626
lclavicle 3.06128e-014 3.73715e-014
lhumerus -88.111 -13.0733 137.621
lradius 72.0876
lwrist 46.8837
lhand -11.6205 74.2752
lfingers 7.12502
lthumb 14.4227 -103.754
rfemur -12.2069 0.430208 26.4499
rtibia 25.2499
rfoot -15.2323 -1.78138
rtoes -6.83742
lfemur -26.0891 -6.25722 -10.2522
ltibia 61.6284
lfoot -10.5206 -3.22522
ltoes 18.8019
271
root 1.0179 17.3464 1.0655 272.583 84.3466 259.523
lowerback -6.1303 2.01734 5.54273
upperback 1.60862 2.15788 3.4512
thorax 5.19376 1.21702 0.718966
lowerneck -10.1259 2.2159 1.87439
upperneck 24.5659 4.33103 -3.94559
head 9.53557 1.98391 -1.1621
rclavicle -1.39149e-014 -2.62396e-014
rhumerus -73.8972 -11.5009 -75.98
rradius 16.6858
rwrist 24.9648
rhand -4.26717 5.19669
rfingers 7.12502
rthumb 21.4974 -23.6304
lclavicle -1.39149e-014 -2.62396e-014
lhumerus -87.5521 -14.17 136.441
lradius 70.9618
lwrist 44.9366
lhand -11.5789 73.5994
lfingers 7.12502
lthumb 14.4628 -103.075
rfemur -12.8444 0.689319 26.0584
rtibia 25.9085
rfoot -14.9376 -1.58403
rtoes -7.18808
lfemur -24.4779 -5.70706 -10.6972
ltibia 60.2504
lfoot -9.18759 -3.64301
ltoes 21.2241
272
root 1.00201 17.3515 0.948425 281.169 84.3292 268.09
lowerback -6.20606 1.85504 5.7682
upperback 1.43481 1.92581 3.52907
thorax 5.05256 1.10478 0.646739
lowerneck -10.1708 1.93112 1.21279
upperneck 24.8125 3.93447 -3.39058
head 9.59309 1.79607 -0.902267
rclavicle 2.98177e-015 8.74653e-015
rhumerus -74.462 -12.7326 -68.8137
rradius 14.8869
rwrist 32.3609
rhand -4.16406 4.75446
rfingers 7.12502
rthumb 21.5964 -24.0613
lclavicle 2.98177e-015 8.74653e-015
lhumerus -87.1553 -15.2979 135.041
lradius 69.7267
lwrist 42.6545
lhand -12.266 73.6157
lfingers 7.12502
lthumb 13.8007 -103.138
rfemur -13.5418 1.10133 25.56
rtibia 26.9035
rfoot -14.533 -1.19359
rtoes -6.23206
lfemur -22.6266 -5.01507 -11.247
ltibia 58.225
lfoot -7.59238 -4.03333
ltoes 23.7876
273
root 0.984169 17.356 0.826837 290.348 84.2923 277.322
lowerback -6.09374 1.75396 5.95158
upperback 1.19665 1.80108 3.5257
thorax 4.74086 1.04026 0.516197
lowerneck -9.81404 1.6376 1.14451
upperneck 24.8135 3.57552 -3.53161
head 9.51684 1.61531 -0.983546
rclavicle -1.74931e-014 -1.27222e-014
rhumerus -75.5427 -14.1968 -60.7525
rradius 13.3601
rwrist 40.8472
rhand -3.91751 4.54022
rfingers 7.12502
rthumb 21.8332 -24.2481
lclavicle -1.74931e-014 -1.27222e-014
lhumerus -86.7622 -16.4595 133.508
lradius 68.2861
lwrist 40.3701
lhand -12.6753 73.6175
lfingers 7.12502
lthumb 13.4061 -103.166
rfemur -14.4212 1.67567 24.9233
rtibia 28.3235
rfoot -14.2271 -0.734407
rtoes -5.52234
lfemur -20.6047 -4.37117 -11.9549
ltibia 55.1134
lfoot -8.17325 -3.51013
ltoes 15.3023
